# xmcd
#
# Track frame offsets: 
#        150
#        20243
#        37710
#        45556
#        60319
#        72707
#        81993
#        104318
#        115724
#        136063
#        154092
#        161203
#        171744
#        184090
#        194080
#        205249
#        213799
#        217837
#
# Disc length: 3103 seconds
#
# Revision: 3
# Processed by: cddbd v1.5.2PL0 Copyright (c) Steve Scherf et al.
# Submitted via: ExactAudioCopy v1.0b1
#
DISCID=050c1d12
DTITLE=Mississippi John Hurt - D.C. Blues: Library of Congress Recordi
DTITLE=ngs, Vol. 2, Disc 1
DYEAR=1965
DGENRE=Blues
TTITLE0=Monday Morning Blues (version 2)
TTITLE1=Nobody's Dirty Business (version 2)
TTITLE2=If You Don't Want Me (version 1)
TTITLE3=Spike Driver (John Henry)
TTITLE4=Salty Dog
TTITLE5=My Creole Belle
TTITLE6=Casey Jones
TTITLE7=Beulah Land
TTITLE8=Waiting For You (I Forgive You Before I Go)
TTITLE9=Stackolee (version 2)
TTITLE10=Walking The Floor Over You
TTITLE11=Camp Meeting Tonight On The Old Camp Ground
TTITLE12=Blessed Be The Name Of The Lord
TTITLE13=When The Roll Is Called Up Yonder
TTITLE14=Blind Man Sit In The Way And Cried
TTITLE15=Glory To His Name
TTITLE16=I'll Fly Away
TTITLE17=The Ten Virgins (When The Bridegroom Comes)
EXTD=
EXTT0=
EXTT1=
EXTT2=
EXTT3=
EXTT4=
EXTT5=
EXTT6=
EXTT7=
EXTT8=
EXTT9=
EXTT10=
EXTT11=
EXTT12=
EXTT13=
EXTT14=
EXTT15=
EXTT16=
EXTT17=
PLAYORDER=
